<svg width="75" height="86" viewBox="0 0 75 86" fill="none" xmlns="http://www.w3.org/2000/svg">
<path d="M4.86719 44.2871H51.8008C52.1311 44.2872 52.448 44.4179 52.6816 44.6514C52.9154 44.8851 53.0468 45.2026 53.0469 45.5332C53.0469 45.8638 52.9154 46.1812 52.6816 46.415C52.448 46.6486 52.1312 46.7802 51.8008 46.7803H4.86719C4.53655 46.7803 4.21915 46.6488 3.98535 46.415C3.75156 46.1812 3.62012 45.8638 3.62012 45.5332C3.62015 45.2026 3.75159 44.8851 3.98535 44.6514C4.21914 44.4177 4.53661 44.2871 4.86719 44.2871ZM28.334 9.08398C28.4979 9.08402 28.6601 9.11687 28.8115 9.17969C28.9629 9.24253 29.101 9.33414 29.2168 9.4502L35.083 15.3174C35.3171 15.5515 35.4492 15.8691 35.4492 16.2002C35.4492 16.5313 35.3171 16.8489 35.083 17.083C34.8489 17.317 34.5312 17.4482 34.2002 17.4482C33.8691 17.4482 33.5515 17.3171 33.3174 17.083L29.9561 13.7188L29.5801 13.3428V36.6572L29.9561 36.2812L33.3174 32.917C33.5515 32.6829 33.8691 32.5518 34.2002 32.5518C34.5312 32.5518 34.8489 32.683 35.083 32.917C35.3171 33.1511 35.4492 33.4687 35.4492 33.7998C35.4492 34.1309 35.3172 34.4485 35.083 34.6826L29.2168 40.5498C29.101 40.6659 28.9629 40.7575 28.8115 40.8203C28.6601 40.8831 28.4979 40.916 28.334 40.916C28.17 40.916 28.0069 40.8832 27.8555 40.8203C27.7043 40.7575 27.5668 40.6657 27.4512 40.5498L21.584 34.6826C21.35 34.4485 21.2188 34.1308 21.2188 33.7998C21.2188 33.4688 21.3499 33.1511 21.584 32.917C21.8181 32.6829 22.1358 32.5518 22.4668 32.5518C22.7978 32.5518 23.1155 32.683 23.3496 32.917L26.7119 36.2812L27.0869 36.6572V13.3428L26.7119 13.7188L23.3496 17.083C23.1155 17.317 22.7978 17.4482 22.4668 17.4482C22.1358 17.4482 21.8181 17.3171 21.584 17.083C21.3499 16.8489 21.2188 16.5312 21.2188 16.2002C21.2188 15.8692 21.35 15.5515 21.584 15.3174L27.4512 9.4502C27.5668 9.33428 27.7043 9.24251 27.8555 9.17969C28.0069 9.11684 28.17 9.08398 28.334 9.08398ZM4.86719 3.21973H51.8008C52.1312 3.21983 52.448 3.3514 52.6816 3.58496C52.9154 3.81876 53.0469 4.13616 53.0469 4.4668C53.0468 4.79739 52.9154 5.11487 52.6816 5.34863C52.448 5.58211 52.1311 5.71279 51.8008 5.71289H4.86719C4.53661 5.71289 4.21913 5.58235 3.98535 5.34863C3.75159 5.11487 3.62015 4.79739 3.62012 4.4668C3.62012 4.13616 3.75156 3.81876 3.98535 3.58496C4.21915 3.35117 4.53655 3.21973 4.86719 3.21973Z" fill="#00617F" stroke="white" stroke-width="0.44"/>
<path d="M0.8 61.39H1.91V64.15H5.25V61.39H6.37V68H5.25V65.12H1.91V68H0.8V61.39ZM7.76797 61.39H8.87797V68H7.76797V61.39ZM15.2428 61.59V62.53C14.7228 62.33 14.2528 62.24 13.7128 62.24C12.2128 62.24 11.1328 63.13 11.1328 64.7C11.1328 66.44 12.2228 67.16 13.7128 67.16C14.0328 67.16 14.4128 67.13 14.8228 66.99V65.04L15.7828 64.92V67.61C14.9428 68.01 14.1528 68.12 13.4828 68.12C11.4928 68.12 10.0028 66.92 10.0028 64.71C10.0028 62.71 11.5128 61.28 13.5028 61.28C14.0928 61.28 14.6828 61.38 15.2428 61.59ZM16.9383 61.39H18.0483V64.15H21.3883V61.39H22.5083V68H21.3883V65.12H18.0483V68H16.9383V61.39ZM5.77 75.6V76.53C5.25 76.33 4.79 76.24 4.23 76.24C2.73 76.24 1.65 77.14 1.65 78.7C1.65 80.44 2.74 81.16 4.22 81.16C4.71 81.16 5.18 81.09 5.77 80.85V81.81C5.12 82.05 4.49 82.12 3.99 82.12C2.01 82.12 0.52 80.92 0.52 78.71C0.52 76.72 2.03 75.28 4.02 75.28C4.57 75.28 5.2 75.38 5.77 75.6ZM6.85 75.39H10.72V76.3H7.89L7.96 76.81V78.19H10.72V79.09H7.96V81.08H10.93V82H6.85V75.39ZM12.0016 75.39H13.1116V82H12.0016V75.39ZM14.5164 75.39H15.6264V80.57L15.5564 81.08H18.6264V82H14.5164V75.39ZM19.375 75.39H20.485V82H19.375V75.39ZM21.8898 75.39H23.3498L26.5298 80.41C26.6098 80.54 26.6698 80.68 26.6898 80.8H26.7598V75.39H27.7798V82H26.2798L23.1398 77.06C23.0598 76.94 22.9998 76.81 22.9798 76.68H22.9198V82H21.8898V75.39ZM34.1401 75.59V76.53C33.6201 76.33 33.1501 76.24 32.6101 76.24C31.1101 76.24 30.0301 77.13 30.0301 78.7C30.0301 80.44 31.1201 81.16 32.6101 81.16C32.9301 81.16 33.3101 81.13 33.7201 80.99V79.04L34.6801 78.92V81.61C33.8401 82.01 33.0501 82.12 32.3801 82.12C30.3901 82.12 28.9001 80.92 28.9001 78.71C28.9001 76.71 30.4101 75.28 32.4001 75.28C32.9901 75.28 33.5801 75.38 34.1401 75.59Z" fill="black"/>
</svg>
